PathFileType	4	(X/Y/Z)	C:\Users\WrightLab\Desktop\Jo\P1_boxCal15.trc
DataRate	CameraRate	NumFrames	NumMarkers	Units	OrigDataRate	OrigDataStartFrame	OrigNumFrames
100.00	100.00	       20	19	mm	100.00	127	       507
Frame#	Time	Headset_Front			Headset_Back			Headset_Left			Headset_Right			Left_Shoulder			Right_Shoulder			Sternum			C7			Left Elbow			Right Elbow			Left Wrist			Right Wrist			Left ASIS			Right ASIS			S2			Left Knee			Right Knee			Left Ankle			Right Ankle			
		X1	Y1	Z1	X2	Y2	Z2	X3	Y3	Z3	X4	Y4	Z4	X5	Y5	Z5	X6	Y6	Z6	X7	Y7	Z7	X8	Y8	Z8	X9	Y9	Z9	X10	Y10	Z10	X11	Y11	Z11	X12	Y12	Z12	X13	Y13	Z13	X14	Y14	Z14	X15	Y15	Z15	X16	Y16	Z16	X17	Y17	Z17	X18	Y18	Z18	X19	Y19	Z19	

127	1.260	-661.65112	842.92371	-416.31915	-473.34964	907.76556	-569.03015							-639.08472	1410.58826	-520.80988	-741.80054	1472.69702	-645.29144	-737.47406	1233.76257	-684.73218	-858.26605	1402.90015	-462.06158	-769.35571	1128.36182	-436.89001				-757.38293	1372.38306	-351.61496	-940.18054	1222.22107	-570.34375				-942.53076	453.18353	-424.86563	-972.06110	95.50079	-316.29431				-592.96265	411.83401	-623.69055	-559.03363	1228.35156	-570.26349	-423.65393	748.89044	-440.86383	
128	1.270	-663.94299	842.72461	-406.13324	-478.34378	906.42047	-563.15973							-641.89978	1409.58362	-512.88446	-745.82611	1471.68323	-635.49298	-742.45245	1232.11023	-674.54645	-860.53357	1402.54602	-451.51300	-772.33875	1127.15137	-425.83810				-758.38794	1371.44458	-342.14307	-944.71899	1221.25574	-559.18048				-942.58008	449.92068	-412.28250	-971.51617	91.90672	-309.87289				-595.95972	410.73889	-614.13879	-563.05725	1227.92175	-562.81659	-425.93237	747.40906	-437.33990	
129	1.280	-664.78961	843.55676	-394.34940	-482.81412	905.33771	-557.32251							-644.49841	1407.72156	-503.83984	-749.71478	1470.84961	-625.41632	-747.61395	1230.73779	-664.51288	-863.02039	1401.87756	-440.46796	-774.20013	1126.17786	-415.09180				-759.61102	1371.00415	-332.61981	-948.92108	1220.25854	-548.07605				-943.12396	446.65875	-400.57730	-971.69220	90.08234	-303.04712				-597.64075	410.18680	-604.26617	-567.41925	1226.58154	-553.50543	-428.70712	745.50043	-433.94864	
130	1.290	-667.17413	843.17682	-382.93625	-488.01535	905.23639	-552.98303							-647.23346	1406.61353	-496.03180	-753.52240	1470.89368	-616.15704	-752.91522	1229.70459	-654.69250	-865.39935	1401.67151	-429.49878	-777.93005	1127.90930	-403.79419				-761.03632	1370.47949	-322.48953	-952.93921	1219.27124	-535.97931				-943.60181	444.67773	-388.62576	-973.63409	88.01687	-294.39676				-599.98389	409.10605	-593.50153	-571.84961	1226.62390	-545.89337	-430.74579	744.23419	-430.52176	
131	1.300	-669.86005	843.20966	-373.36346	-492.34387	905.66278	-547.73480							-649.88464	1405.39343	-487.40598	-757.60260	1470.49243	-605.69379	-758.44965	1228.60156	-644.82074	-868.88745	1402.76208	-419.59155	-780.36505	1127.13892	-393.43109				-760.65100	1369.39465	-312.11252	-956.84052	1219.01221	-523.93799				-944.40222	443.10150	-377.00562	-975.48090	86.46442	-287.42426				-602.42047	408.74579	-582.23767	-576.08612	1226.08972	-537.71356	-433.36090	742.80066	-426.90271	
132	1.310	-669.79755	845.35565	-359.87280	-497.69806	905.58453	-541.20679							-653.25653	1405.05432	-478.96893	-761.51282	1470.99402	-596.03552	-764.13727	1227.91064	-635.11249	-869.66760	1402.46301	-407.93185	-783.21326	1128.43787	-381.88989				-762.53680	1369.70691	-302.41330	-961.17358	1218.80371	-512.41742				-945.63348	441.31595	-364.45404	-978.39587	83.92422	-279.80154				-604.50183	407.60446	-569.77191	-579.95624	1226.29272	-530.72400	-435.75705	742.55261	-423.66113	
133	1.320	-672.18921	845.14197	-348.87463	-502.51892	905.43604	-537.42358							-656.07666	1405.23499	-470.39325	-765.49866	1471.53638	-585.85059	-769.69336	1227.60181	-625.12085	-872.00531	1404.34204	-396.75146	-786.01416	1129.27954	-371.37619				-761.74915	1369.48779	-291.98297	-965.46307	1218.40869	-499.47076				-948.16614	440.23517	-355.71045	-980.63788	82.12488	-273.96658				-606.21295	407.07297	-558.19647	-584.26233	1226.18994	-522.96417	-437.64587	741.93085	-421.12668	
134	1.330	-673.66266	846.37573	-338.01306	-507.68027	904.74951	-531.43054							-658.45648	1404.73608	-461.88605	-769.37518	1472.68701	-576.11902	-775.25629	1227.61694	-614.90460	-873.02094	1404.67761	-384.98163	-787.83966	1131.23254	-360.61221				-763.10712	1369.46960	-283.15518	-969.14197	1218.13806	-486.79956				-950.53802	441.22162	-342.18652	-983.27783	79.90801	-267.80188				-608.27478	406.52100	-544.41119	-587.65302	1227.25916	-515.98816	-439.70563	742.04022	-418.26147	
135	1.340	-675.39063	847.39240	-327.75784	-513.15594	905.70728	-526.34863							-661.39227	1406.00952	-455.30319	-773.45007	1473.49463	-565.93439	-780.54846	1227.95264	-604.48877	-875.53522	1406.66431	-373.98959	-789.28668	1132.85645	-350.47690				-762.77130	1369.95386	-272.65530	-972.59265	1218.92981	-474.26343				-952.78076	442.56464	-329.81107	-984.32532	78.62125	-263.54074				-610.40015	405.51611	-528.86584	-591.75720	1228.31580	-509.07068	-441.69016	742.65424	-415.38431	
136	1.350	-677.92926	849.14801	-316.51950	-517.60480	907.45471	-522.36597							-663.60760	1405.80273	-444.57404	-777.33386	1474.90820	-555.66022	-785.92871	1228.42102	-594.49451	-876.16510	1408.04797	-362.23965	-790.68365	1134.29480	-339.29047				-762.82709	1371.65381	-263.52914	-975.79816	1219.63928	-461.57233				-955.21204	444.05191	-318.22745	-984.26392	75.50239	-258.37079				-611.47461	404.16953	-512.86774	-595.38019	1230.02942	-502.96121	-443.73190	743.75470	-413.05453	
137	1.360	-679.97369	850.69745	-306.77069	-522.78363	908.62262	-516.74078							-666.36078	1406.99390	-437.48138	-781.13428	1476.79663	-545.75562	-790.76825	1230.03015	-584.50134	-878.97595	1409.21130	-351.45663	-792.86969	1136.82727	-329.53137				-762.48132	1373.01880	-253.75417	-978.59076	1220.83093	-448.89886				-957.21484	444.43051	-310.59512	-981.94965	70.00545	-261.96436				-613.63007	402.84970	-494.40479	-598.71191	1231.64673	-495.52267	-445.37488	744.80780	-411.44110	
138	1.370	-680.68445	853.19305	-297.02631	-527.80121	910.51605	-511.73706							-668.86444	1408.58447	-428.57523	-784.99896	1478.61475	-534.79608	-795.60278	1231.32715	-574.35529	-878.14551	1410.79626	-338.95834	-791.66290	1137.96912	-319.09125				-764.21570	1370.87720	-244.00591	-981.01855	1222.21411	-435.81265				-956.42621	446.24121	-306.56589	-980.87762	69.98257	-259.84158				-614.35895	402.59091	-476.96866	-602.36407	1233.83496	-488.01508	-447.05157	746.76257	-408.19403	
139	1.380	-682.41211	855.91656	-288.52014	-532.06805	912.71039	-506.53818							-671.29974	1410.22583	-419.33136	-788.71082	1480.53198	-524.63147	-800.23291	1233.03784	-564.22650	-879.79596	1412.91357	-327.84875	-792.21759	1140.36035	-309.36380				-763.93170	1372.54065	-234.65479	-983.26147	1224.01367	-422.68607				-958.24902	449.85413	-291.88370	-981.01941	70.81362	-258.08740				-614.71442	401.99393	-456.47089	-605.25775	1236.16077	-481.27435	-447.96210	749.17072	-405.77689	
140	1.390	-684.48041	858.12054	-278.59021	-535.56268	915.44659	-501.65659							-673.11719	1411.85754	-412.48401	-792.29663	1482.45581	-514.61554	-804.26215	1235.50464	-554.64429	-880.88092	1414.40332	-316.33539	-792.89154	1142.08301	-299.68463				-764.04340	1373.49390	-225.32909	-985.17395	1225.96826	-409.75919				-958.34656	450.64606	-290.28381	-981.97278	72.99089	-254.39461				-613.82959	402.19406	-435.41922	-608.47284	1238.52551	-474.03622	-449.04654	751.65588	-403.16470	
141	1.400	-685.08203	859.86597	-270.38123	-538.58759	918.34747	-496.26065							-675.06165	1413.67456	-402.01697	-795.74603	1484.48010	-503.87784	-808.22192	1237.73438	-544.17767	-881.49445	1415.40210	-305.61298	-792.07361	1144.10767	-289.50690				-762.05048	1375.09644	-215.40468	-986.33984	1228.32788	-396.73199				-960.55377	452.60046	-278.51074	-981.62189	73.91453	-254.11218				-611.78864	403.72641	-416.72403	-610.24652	1241.51550	-466.96420	-450.27338	753.93079	-400.46652	
142	1.410	-687.21631	862.58649	-262.25516	-540.56293	921.17877	-491.20181							-677.31879	1416.08740	-393.75018	-799.12268	1486.53882	-493.74408	-811.83728	1240.15259	-534.58630	-882.20081	1416.43188	-294.70795	-791.95325	1145.97900	-281.35965				-763.90155	1376.56006	-206.30310	-986.91467	1229.90491	-383.09341				-961.63818	453.64014	-268.25027	-981.15668	74.08424	-253.56703				-609.89478	404.57910	-397.87622	-612.90375	1243.58594	-460.28015	-450.42896	756.42542	-397.26294	
143	1.420	-686.38531	864.05273	-253.94766	-542.75018	924.62970	-486.60263							-679.36578	1417.68176	-384.32761	-802.27924	1488.60938	-483.69754	-815.14368	1242.70593	-524.44006	-882.87860	1417.14209	-282.79364	-791.06201	1147.52478	-271.87708				-762.66278	1379.05151	-197.03253	-987.77466	1232.32532	-369.60123				-963.68073	454.89569	-260.57852	-980.71637	73.75592	-252.42055				-608.31482	407.92938	-381.04422	-615.51172	1246.47937	-453.24744	-450.80692	759.30579	-394.25354	
144	1.430	-686.05042	866.67145	-246.29956	-544.20752	927.22913	-482.13251							-681.22327	1420.84338	-375.84406	-805.25055	1490.68188	-473.51077	-818.33313	1245.04395	-515.14630	-883.03094	1418.57617	-272.23322	-789.33044	1148.87634	-261.53894				-761.33020	1380.10303	-188.28378	-988.13672	1235.03064	-356.79050				-966.69678	453.99161	-254.64841	-980.56683	73.25341	-251.32590				-607.29333	411.48929	-362.76318	-617.14862	1248.95544	-445.91974	-450.46869	762.38519	-392.13956	
145	1.440	-685.79901	868.11932	-239.80254	-544.72424	930.22217	-477.72504							-681.57758	1423.21924	-367.16104	-807.98529	1492.68188	-462.70016	-821.15143	1247.54089	-506.04047	-883.46716	1420.26416	-261.01453	-788.13245	1150.66333	-253.58421				-761.22955	1381.33008	-177.98523	-988.29541	1236.84070	-343.88828				-969.47455	452.20737	-249.97256	-980.24719	72.90379	-250.48172				-606.44208	415.06760	-345.50015	-618.98181	1250.91174	-439.68423	-450.31442	764.44196	-387.70917	
146	1.450	-684.38245	869.08118	-232.13319	-546.26007	932.46002	-472.39581							-683.27075	1425.73877	-359.30371	-810.51630	1494.70801	-452.21036	-823.43958	1249.54785	-495.95059	-882.60822	1420.44592	-249.38516	-785.91089	1151.24243	-247.52180				-759.08044	1382.53064	-168.86769	-987.74847	1238.99707	-331.83151				-972.75873	450.04840	-245.40002	-980.25281	72.69550	-249.54907				-605.27649	420.22464	-328.36697	-620.67810	1252.87488	-433.83191	-449.78055	767.33752	-385.10031	
